# AST/ASF file generated using VICON BodyLanguage
# -----------------------------------------------
:version 1.10
:name VICON
:units
  mass 1.0
  length 0.45
  angle deg
:documentation
   .ast/.asf automatically generated from VICON data using
   VICON BodyBuilder and BodyLanguage model FoxedUp or BRILLIANT.MOD
:root
   order TX TY TZ RX RY RZ
   axis XYZ
   position 0 0 0  
   orientation 0 0 0 
:bonedata
  begin
     id 1 
     name lhipjoint
     direction 0.603808 -0.713975 0.35448 
     length 2.2025 
     axis 0 0 0  XYZ
  end
  begin
     id 2 
     name lfemur
     direction 0.34202 -0.939693 0  
     length 6.55877  
     axis 0 0 20  XYZ
    dof rx ry rz
    limits (-160.0 20.0)
           (-70.0 70.0)
           (-60.0 70.0)
  end
  begin
     id 3 
     name ltibia
     direction 0.34202 -0.939693 0   
     length 6.80302   
     axis 0 0 20   XYZ
    dof rx
    limits (-10.0 170.0)
  end
  begin
     id 4 
     name lfoot
     direction 0.091848 -0.25235 0.963267   
     length 2.03446   
     axis -90 7.62852e-016 20   XYZ
    dof rx rz
    limits (-45.0 90.0)
           (-70.0 20.0)
  end
  begin
     id 5 
     name ltoes
     direction 1.53608e-011 -4.21925e-011 1   
     length 1.02033   
     axis -90 7.62852e-016 20   XYZ
    dof rx
    limits (-90.0 20.0)
  end
  begin
     id 6 
     name rhipjoint
     direction -0.587285 -0.724947 0.359928   
     length 2.16916  
     axis 0 0 0  XYZ 
  end
  begin
     id 7 
     name rfemur
     direction -0.34202 -0.939693 0   
     length 6.43173   
     axis 0 0 -20   XYZ
    dof rx ry rz
    limits (-160.0 20.0)
           (-70.0 70.0)
           (-70.0 60.0)
  end
  begin
     id 8 
     name rtibia
     direction -0.34202 -0.939693 0   
     length 6.70662   
     axis 0 0 -20   XYZ
    dof rx
    limits (-10.0 170.0)
 end
 begin
     id 9 
     name rfoot
     direction -0.11854 -0.325686 0.938018   
     length 2.0773  
     axis -90 -7.62852e-016 -20   XYZ
    dof rx rz
    limits (-45.0 90.0)
           (-20.0 70.0)
  end
  begin
     id 10 
     name rtoes
     direction -1.53547e-011 -4.21838e-011 1   
     length 1.03267   
     axis -90 -7.62852e-016 -20   XYZ
    dof rx
    limits (-90.0 20.0)
  end
  begin
     id 11 
     name lowerback
     direction -0.0286554 0.999539 0.0100613   
     length 2.08751   
     axis 0 0 0   XYZ
    dof rx ry rz
    limits (-20.0 45.0)
           (-30.0 30.0)
           (-30.0 30.0)
  end
  begin
     id 12 
     name upperback
     direction 0.0227093 0.999705 -0.00860929   
     length 2.08517   
     axis 0 0 0   XYZ
    dof rx ry rz
    limits (-20.0 45.0)
           (-30.0 30.0)
           (-30.0 30.0)
  end
  begin
     id 13 
     name thorax
     direction 0.0351627 0.999285 -0.013892   
     length 2.08412   
     axis 0 0 0   XYZ
    dof rx ry rz
    limits (-20.0 45.0)
           (-30.0 30.0)
           (-30.0 30.0)
  end
  begin
     id 14 
     name lowerneck
     direction -0.0696283 0.997344 0.0213922   
     length 1.44164   
     axis 0 0 0   XYZ
    dof rx ry rz
    limits (-20.0 45.0)
           (-30.0 30.0)
           (-30.0 30.0)
  end
  begin
     id 15 
     name upperneck
     direction 0.0531 0.990412 -0.127531   
     length 1.45022   
     axis 0 0 0   XYZ
    dof rx ry rz
    limits (-20.0 45.0)
           (-30.0 30.0)
           (-30.0 30.0)
  end
  begin
     id 16
     name head
     direction 0.0188154 0.998548 -0.0504727  
     length 1.45845  
     axis 0 0 0   XYZ
    dof rx ry rz
    limits (-20.0 45.0)
           (-30.0 30.0)
           (-30.0 30.0)
  end
  begin
     id 17 
     name lclavicle
     direction 0.961559 0.260051 0.088188  
     length 2.86057  
     axis 0 0 0   XYZ
    dof ry rz
    limits (-20.0 10.0)
           (0.0 20.0)
  end
  begin
     id 18 
     name lhumerus
     direction 1 -4.48959e-011 2.88185e-027   
     length 4.36901   
     axis 180 -30 -90   XYZ
    dof rx ry rz
    limits (-60.0 90.0)
           (-90.0 90.0)
           (-90.0 90.0)
  end
  begin
     id 19
     name lradius
     direction 1 -4.48965e-011 -3.92618e-028   
     length 3.21737   
     axis 180 -30 -90   XYZ
    dof rx
    limits (-10.0 170.0)
  end
  begin
     id 20
     name lwrist
     direction 1 -4.49037e-011 2.57246e-027   
     length 1.60869   
     axis -1.61769e-015 90 90   XYZ
    dof ry
    limits (-180.0 0.0)
 end
  begin
     id 21 
     name lhand
     direction 1 -4.48807e-011 5.12958e-027   
     length 0.564313   
     axis -3.27988e-015 90 90   XYZ
    dof rx rz
    limits (-90.0 90.0)
           (-45.0 45.0)
  end
  begin
     id 22 
     name lfingers
     direction 1 -4.48879e-011 1.02687e-026   
     length 0.454963   
     axis -6.5598e-015 90 90   XYZ
    dof rx
    limits (0.0 90.0)
  end
  begin
     id 23
     name lthumb
     direction 0.707107 -6.3475e-011 0.707107   
     length 0.653239   
     axis -90 45 2.19363e-014   XYZ
    dof rx rz
    limits (-45.0 45.0)
           (-45.0 45.0)
  end
  begin
     id 24 
     name rclavicle
     direction -0.954677 0.253915 0.155304   
     length 3.11497  
     axis 0 0 0   XYZ 
    dof ry rz
    limits (-10.0 20.0)
           (-20.0 0.0)
  end
  begin
     id 25 
     name rhumerus
     direction -1 -4.48958e-011 -8.20169e-028  
     length 4.34118   
     axis 180 30 90   XYZ
    dof rx ry rz
    limits (-90.0 60.0)
           (-90.0 90.0)
           (-90.0 90.0)
  end
  begin
     id 26 
     name rradius
     direction -1 -4.48978e-011 1.5676e-027   
     length 3.09531   
     axis 180 30 90   XYZ
    dof rx
    limits (-10.0 170.0)
  end
  begin
     id 27 
     name rwrist
     direction -1 -4.49001e-011 2.57123e-027   
     length 1.54765   
     axis -1.61769e-015 -90 -90   XYZ
    dof ry
    limits (-180.0 0.0)
  end
  begin
     id 28
     name rhand
     direction -1 -4.48847e-011 5.13225e-027   
     length 0.597446   
     axis -3.27988e-015 -90 -90   XYZ
    dof rx rz
    limits (-90.0 90.0)
           (-45.0 45.0)
  end
  begin
     id 29
     name rfingers
     direction -1 -4.49094e-011 1.02974e-026   
     length 0.481677   
     axis -6.5598e-015 -90 -90   XYZ
    dof rx
    limits (0.0 90.0)
  end
  begin
     id 30
     name rthumb
     direction -0.707107 -6.34859e-011 0.707107   
     length 0.691594   
     axis -90 -45 -2.19363e-014   XYZ
    dof rx rz
    limits (-45.0 45.0)
           (-45.0 45.0)
  end
:hierarchy
  begin
    root lhipjoint rhipjoint lowerback
    lhipjoint lfemur
    lfemur ltibia
    ltibia lfoot
    lfoot ltoes
    rhipjoint rfemur
    rfemur rtibia
    rtibia rfoot
    rfoot rtoes
    lowerback upperback
    upperback thorax
    thorax lowerneck lclavicle rclavicle
    lowerneck upperneck
    upperneck head
    lclavicle lhumerus
    lhumerus lradius
    lradius lwrist
    lwrist lhand lthumb
    lhand lfingers
    rclavicle rhumerus
    rhumerus rradius
    rradius rwrist
    rwrist rhand rthumb
    rhand rfingers
  end

#!OML:ASF I:\Acrobat_Osman\acrobat\cartwheel_test 2\Patient 1\Session 1\acrobat.ASF
:FULLY-SPECIFIED
:DEGREES
226
root 9.97388 14.7486 1.37705 186.288 -159.63 -185.169
lowerback 0.369898 18.8264 12.8659
upperback -0.803979 25.1343 -0.843704
thorax 4.46685 12.696 -5.12771
lowerneck -10.8404 3.06807 5.02912
upperneck 20.4288 5.56858 -9.80447
head 8.54945 2.12534 -3.54845
rclavicle 2.68235e-014 -3.97569e-016
rhumerus 7.84527 -5.45406 -55.1179
rradius 39.9005
rwrist 12.666
rhand -28.9034 38.596
rfingers 7.12502
rthumb -2.25845 8.62821
lclavicle 2.68235e-014 -3.97569e-016
lhumerus -55.1945 15.3794 4.07766
lradius 26.6455
lwrist 40.0293
lhand -26.2109 -296.939
lfingers 7.12502
lthumb 0.342041 -813.041
rfemur 30.2354 -11.8288 16.0333
rtibia -6.99722e-014
rfoot -20.0695 -35.2782
rtoes 0.520341
lfemur -46.3768 -23.7877 -1.07582
ltibia 51.8896
lfoot -11.0973 -29.5469
ltoes 11.7273
227
root 9.99812 14.8043 1.40238 186.775 -157.024 -185.031
lowerback 0.0329299 18.3308 12.4823
upperback -0.409335 24.4005 -0.551398
thorax 4.65376 12.3387 -4.70654
lowerneck -10.9388 2.58385 4.07279
upperneck 19.8405 4.89881 -9.35922
head 8.28093 1.77791 -3.29724
rclavicle -1.19668e-013 -1.70955e-014
rhumerus 7.45538 -7.91084 -55.1916
rradius 39.9392
rwrist 14.549
rhand -28.6722 40.1533
rfingers 7.12502
rthumb -2.03508 10.1832
lclavicle -1.19668e-013 -1.70955e-014
lhumerus -54.1946 14.5897 5.78205
lradius 27.0865
lwrist 40.1059
lhand -25.37 -300.973
lfingers 7.12502
lthumb 1.15417 -990.996
rfemur 28.7349 -8.73479 16.6783
rtibia 2.54444e-014
rfoot -21.3544 -38.1839
rtoes 2.70336
lfemur -45.4191 -23.0692 -1.21986
ltibia 51.1439
lfoot -13.0548 -27.2697
ltoes 6.14266
228
root 10.0173 14.8664 1.41473 187.457 -154.216 -184.964
lowerback -0.235363 17.7787 11.9177
upperback -0.199741 23.6178 -0.353593
thorax 4.58061 11.9431 -4.37426
lowerneck -10.9272 1.99387 3.15139
upperneck 19.1217 4.02711 -8.69701
head 7.94357 1.36397 -2.99925
rclavicle 6.85807e-014 3.18055e-015
rhumerus 7.00508 -8.8616 -54.3232
rradius 40.0343
rwrist 15.0144
rhand -28.2394 37.0574
rfingers 7.12502
rthumb -1.61714 7.08383
lclavicle 6.85807e-014 3.18055e-015
lhumerus -53.0797 13.4951 7.24803
lradius 27.6485
lwrist 40.4392
lhand -25.1314 -304.854
lfingers 7.12502
lthumb 1.38468 -994.879
rfemur 27.0356 -5.45 17.4002
rtibia -2.22639e-014
rfoot -22.9789 -41.3162
rtoes 4.64232
lfemur -44.528 -22.1559 -1.22831
ltibia 50.3085
lfoot -14.7627 -24.858
ltoes 0.321123
229
root 10.0397 14.9319 1.42991 187.883 -151.069 -185.02
lowerback -0.0949373 17.1859 11.5285
upperback 0.0868355 22.8316 -0.166608
thorax 4.45787 11.5535 -4.21747
lowerneck -11.0265 1.29123 2.0586
upperneck 18.2745 2.97002 -7.71159
head 7.58467 0.879201 -2.58192
rclavicle -1.77415e-014 0
rhumerus 7.73587 -7.05875 -51.667
rradius 38.3692
rwrist 13.2611
rhand -29.8954 38.2849
rfingers 7.12502
rthumb -3.21641 8.3294
lclavicle -1.77415e-014 0
lhumerus -51.9257 11.849 8.83523
lradius 28.4203
lwrist 41.484
lhand -23.8195 -306.247
lfingers 7.12502
lthumb 2.65169 -996.284
rfemur 22.8138 -1.9268 18.3302
rtibia 5.4803
rfoot -28.5761 -43.131
rtoes 6.76019
lfemur -43.139 -21.2534 -1.33824
ltibia 49.3906
lfoot -16.1757 -22.0478
ltoes -5.29796
230
root 10.0638 14.9958 1.43624 188.41 -147.898 -185.149
lowerback -0.118251 16.5129 11.0722
upperback 0.427233 21.9153 0.0250433
thorax 4.44373 11.1013 -3.97685
lowerneck -11.1463 0.353695 0.835972
upperneck 17.3303 1.5803 -6.45303
head 7.20726 0.252989 -2.08631
rclavicle 4.90004e-014 -2.38542e-015
rhumerus 7.59979 -7.40784 -49.8661
rradius 37.713
rwrist 13.5742
rhand -31.1683 37.2042
rfingers 7.12502
rthumb -4.44566 7.27087
lclavicle 4.90004e-014 -2.38542e-015
lhumerus -50.8267 10.9267 9.63759
lradius 29.0843
lwrist 42.1772
lhand -22.3613 -306.767
lfingers 7.12502
lthumb 4.05986 -996.826
rfemur 19.968 1.83887 18.8738
rtibia 8.21243
rfoot -34.0961 -45.1982
rtoes 10.1024
lfemur -41.8077 -20.4505 -1.30937
ltibia 48.3627
lfoot -17.2868 -19.0069
ltoes -10.5808
231
root 10.0808 15.062 1.43222 188.91 -144.648 -184.993
lowerback -0.367366 15.8119 10.1223
upperback 0.711893 20.95 0.115952
thorax 4.3656 10.6134 -3.57248
lowerneck -10.7935 -0.818449 -0.474941
upperneck 16.2981 -0.172725 -4.75188
head 6.74823 -0.507941 -1.46385
rclavicle -5.13858e-014 -1.59028e-015
rhumerus 7.46899 -8.39373 -48.085
rradius 36.8419
rwrist 14.206
rhand -29.899 34.4975
rfingers 7.12502
rthumb -3.21995 4.54209
lclavicle -5.13858e-014 -1.59028e-015
lhumerus -49.5088 10.4296 9.8054
lradius 29.4796
lwrist 42.5059
lhand -22.0658 -306.936
lfingers 7.12502
lthumb 4.34521 -997.001
rfemur 17.5287 5.73417 18.9072
rtibia 10.0335
rfoot -40.3624 -46.6806
rtoes 14.3587
lfemur -40.5114 -19.6134 -1.48746
ltibia 47.2408
lfoot -18.0193 -16.0128
ltoes -14.7262
232
root 10.092 15.1294 1.42765 189.336 -141.17 -184.734
lowerback -0.62059 15.1925 8.98934
upperback 0.880964 20.1132 0.0634133
thorax 4.20103 10.1826 -3.20328
lowerneck -9.94656 -2.13014 -1.90276
upperneck 15.1546 -2.15889 -2.56166
head 6.23279 -1.35273 -0.678187
rclavicle -5.60573e-014 4.77083e-015
rhumerus 6.73874 -9.33579 -46.1674
rradius 36.1603
rwrist 13.686
rhand -29.901 34.6564
rfingers 7.12502
rthumb -3.22187 4.70095
lclavicle -5.60573e-014 4.77083e-015
lhumerus -47.8211 9.84895 9.69008
lradius 29.8077
lwrist 42.6194
lhand -21.9241 -306.974
lfingers 7.12502
lthumb 4.48204 -997.042
rfemur 15.1162 6.29476 17.5823
rtibia 11.4236
rfoot -42.2833 -45.8528
rtoes 17.4966
lfemur -39.0797 -18.5355 -1.85427
ltibia 46.081
lfoot -18.368 -13.251
ltoes -17.2979
233
root 10.1045 15.1908 1.42063 189.809 -137.825 -184.651
lowerback -0.954695 14.5023 7.97432
upperback 1.10126 19.1758 0.0481819
thorax 4.17213 9.70459 -2.80729
lowerneck -9.04978 -3.51569 -3.4814
upperneck 13.96 -4.21212 -0.234291
head 5.78028 -2.24677 0.173322
rclavicle -6.66923e-014 -4.77083e-015
rhumerus 5.63029 -10.2491 -43.9559
rradius 35.6522
rwrist 13.3029
rhand -30.3789 34.784
rfingers 7.12502
rthumb -3.68338 4.83604
lclavicle -6.66923e-014 -4.77083e-015
lhumerus -46.0592 9.64505 9.22355
lradius 30.1055
lwrist 42.6798
lhand -21.793 -307.077
lfingers 7.12502
lthumb 4.60869 -997.147
rfemur 12.7668 6.77781 16.5157
rtibia 12.557
rfoot -43.2938 -45.9369
rtoes 19.0905
lfemur -37.7041 -17.456 -2.09856
ltibia 44.9532
lfoot -18.5387 -10.7796
ltoes -18.9123
234
root 10.1208 15.2434 1.40656 190.25 -134.682 -184.62
lowerback -1.32049 13.6839 7.01112
upperback 1.40027 18.0691 0.054107
thorax 4.26122 9.14396 -2.39447
lowerneck -7.93978 -4.86048 -5.12534
upperneck 12.5839 -6.19662 2.18219
head 5.32393 -3.12585 1.07537
rclavicle -5.26779e-015 -1.66979e-014
rhumerus 4.03408 -10.1047 -41.2496
rradius 35.8051
rwrist 11.7827
rhand -30.4913 32.9339
rfingers 7.12502
rthumb -3.79186 2.9879
lclavicle -5.26779e-015 -1.66979e-014
lhumerus -44.2268 9.70734 8.5754
lradius 30.3499
lwrist 42.8357
lhand -21.628 -307.361
lfingers 7.12502
lthumb 4.76795 -997.434
rfemur 10.6363 7.37016 15.6617
rtibia 13.4736
rfoot -44.9297 -45.7846
rtoes 21.3261
lfemur -36.4274 -16.332 -2.33844
ltibia 43.8969
lfoot -18.54 -8.63282
ltoes -20.4279
235
root 10.137 15.2896 1.38803 190.676 -131.55 -184.61
lowerback -1.65654 12.8586 6.07585
upperback 1.70016 16.9659 0.00665467
thorax 4.39069 8.58395 -2.03353
lowerneck -6.94067 -6.17188 -6.44643
upperneck 11.4003 -8.12193 4.33589
head 5.00471 -4.00061 1.84408
rclavicle -1.46504e-013 1.27222e-014
rhumerus 2.60171 -10.5663 -38.8384
rradius 35.7199
rwrist 10.9331
rhand -31.7 34.6013
rfingers 7.12502
rthumb -4.95904 4.67931
lclavicle -1.46504e-013 1.27222e-014
lhumerus -42.1864 9.5534 8.07581
lradius 30.6901
lwrist 43.2077
lhand -21.6715 -307.688
lfingers 7.12502
lthumb 4.72596 -997.761
rfemur 8.595 7.76989 14.7522
rtibia 14.2027
rfoot -46.3886 -45.2929
rtoes 23.4426
lfemur -35.17 -14.9743 -2.63895
ltibia 42.9
lfoot -18.3595 -6.82545
ltoes -21.7144
